<svg xmlns="http://www.w3.org/2000/svg" width="30.631" height="30.881" viewBox="0 0 30.631 30.881"><defs><style>.a{fill:#fff;stroke:#fff;stroke-width:0.5px;}</style></defs><g transform="translate(0.25 0.253)"><g transform="translate(0 0)"><path class="a" d="M16.018.018A15.071,15.071,0,0,0,3.33,21.907L1.73,29.67a.586.586,0,0,0,.709.689l7.608-1.8A15.066,15.066,0,1,0,16.018.018ZM25.1,23.406a11.8,11.8,0,0,1-13.591,2.225L10.446,25.1,5.781,26.208l.982-4.766L6.241,20.42a11.806,11.806,0,0,1,2.173-13.7A11.8,11.8,0,1,1,25.1,23.406Z" transform="translate(-1.69 0)"/><path class="a" d="M119.482,117.946l-2.918-.838a1.088,1.088,0,0,0-1.076.284l-.714.727a1.063,1.063,0,0,1-1.156.244,15.577,15.577,0,0,1-5.026-4.432,1.063,1.063,0,0,1,.084-1.178l.623-.806a1.087,1.087,0,0,0,.134-1.1l-1.228-2.777a1.088,1.088,0,0,0-1.7-.389,4.908,4.908,0,0,0-1.9,2.9c-.207,2.044.67,4.622,3.985,7.716,3.831,3.575,6.9,4.048,8.9,3.564a4.908,4.908,0,0,0,2.609-2.275A1.088,1.088,0,0,0,119.482,117.946Z" transform="translate(-97.106 -99.614)"/></g></g></svg>