<svg xmlns="http://www.w3.org/2000/svg" width="43" height="42" viewBox="0 0 43 42"><defs><style>.a{fill:#4dc362;}.b{fill:#fff;}</style></defs><ellipse class="a" cx="21.5" cy="21" rx="21.5" ry="21"/><g transform="translate(7.4 6.294)"><g transform="translate(0 0)"><path class="b" d="M15.263.017A14.276,14.276,0,0,0,3.243,20.751L1.728,28.105a.555.555,0,0,0,.672.653l7.206-1.707A14.271,14.271,0,1,0,15.263.017Zm8.6,22.155a11.181,11.181,0,0,1-12.874,2.107l-1-.5L5.566,24.826l.93-4.515L6,19.343A11.183,11.183,0,0,1,8.059,6.369a11.174,11.174,0,1,1,15.8,15.8Z" transform="translate(-1.69 0)"/><path class="b" d="M118.7,117.39l-2.764-.794a1.03,1.03,0,0,0-1.02.269l-.676.689a1.007,1.007,0,0,1-1.095.231,14.756,14.756,0,0,1-4.761-4.2,1.007,1.007,0,0,1,.08-1.116l.59-.763a1.03,1.03,0,0,0,.127-1.047l-1.163-2.63a1.031,1.031,0,0,0-1.61-.369,4.649,4.649,0,0,0-1.8,2.742c-.2,1.937.634,4.378,3.775,7.309,3.629,3.387,6.534,3.834,8.426,3.376a4.649,4.649,0,0,0,2.472-2.155A1.031,1.031,0,0,0,118.7,117.39Z" transform="translate(-97.5 -100.025)"/></g></g></svg>