<svg id="instagram" xmlns="http://www.w3.org/2000/svg" width="46.419" height="46.419" viewBox="0 0 46.419 46.419">
  <path id="Caminho_30" data-name="Caminho 30" d="M215.885,211.442A4.442,4.442,0,1,1,211.442,207,4.442,4.442,0,0,1,215.885,211.442Zm0,0" transform="translate(-188.233 -188.233)" fill="#fff"/>
  <path id="Caminho_31" data-name="Caminho 31" d="M156.8,138.554a4.413,4.413,0,0,0-2.529-2.529,7.374,7.374,0,0,0-2.474-.459c-1.406-.064-1.827-.078-5.386-.078s-3.98.013-5.386.078a7.378,7.378,0,0,0-2.474.459,4.415,4.415,0,0,0-2.53,2.529,7.376,7.376,0,0,0-.459,2.475c-.064,1.405-.078,1.827-.078,5.386s.014,3.98.078,5.386a7.374,7.374,0,0,0,.459,2.474,4.414,4.414,0,0,0,2.529,2.529,7.365,7.365,0,0,0,2.475.459c1.405.064,1.826.078,5.385.078s3.981-.013,5.386-.078a7.366,7.366,0,0,0,2.475-.459,4.413,4.413,0,0,0,2.529-2.529,7.381,7.381,0,0,0,.459-2.474c.064-1.406.078-1.827.078-5.386s-.013-3.98-.078-5.386A7.365,7.365,0,0,0,156.8,138.554Zm-10.389,14.7a6.844,6.844,0,1,1,6.844-6.844A6.844,6.844,0,0,1,146.411,153.258Zm7.114-12.358a1.6,1.6,0,1,1,1.6-1.6A1.6,1.6,0,0,1,153.525,140.9Zm0,0" transform="translate(-123.201 -123.205)" fill="#fff"/>
  <path id="Caminho_32" data-name="Caminho 32" d="M23.21,0a23.209,23.209,0,1,0,23.21,23.209A23.212,23.212,0,0,0,23.21,0ZM36.457,28.7a9.778,9.778,0,0,1-.619,3.235,6.815,6.815,0,0,1-3.9,3.9,9.785,9.785,0,0,1-3.235.619c-1.421.065-1.875.08-5.495.08s-4.073-.016-5.495-.08a9.785,9.785,0,0,1-3.235-.619,6.815,6.815,0,0,1-3.9-3.9A9.776,9.776,0,0,1,9.963,28.7c-.066-1.422-.081-1.876-.081-5.495s.015-4.073.08-5.495a9.779,9.779,0,0,1,.619-3.235,6.819,6.819,0,0,1,3.9-3.9,9.787,9.787,0,0,1,3.235-.619c1.421-.065,1.875-.08,5.495-.08s4.073.016,5.495.081a9.789,9.789,0,0,1,3.235.619,6.817,6.817,0,0,1,3.9,3.9,9.777,9.777,0,0,1,.62,3.235c.065,1.421.08,1.875.08,5.495S36.522,27.283,36.457,28.7Zm0,0" fill="#fff"/>
</svg>
