<svg id="youtube" xmlns="http://www.w3.org/2000/svg" width="46.419" height="46.419" viewBox="0 0 46.419 46.419">
  <path id="Caminho_28" data-name="Caminho 28" d="M224.113,216.736l7.55-4.348-7.55-4.348Zm0,0" transform="translate(-203.795 -189.178)" fill="#fff"/>
  <path id="Caminho_29" data-name="Caminho 29" d="M23.21,0a23.209,23.209,0,1,0,23.21,23.209A23.212,23.212,0,0,0,23.21,0Zm14.5,23.233a38.307,38.307,0,0,1-.6,6.977,3.634,3.634,0,0,1-2.557,2.556c-2.27.6-11.349.6-11.349.6s-9.055,0-11.349-.621A3.635,3.635,0,0,1,9.3,30.186a38.138,38.138,0,0,1-.6-6.976,38.281,38.281,0,0,1,.6-6.976,3.708,3.708,0,0,1,2.557-2.58c2.27-.6,11.349-.6,11.349-.6s9.079,0,11.349.621a3.635,3.635,0,0,1,2.557,2.557A36.352,36.352,0,0,1,37.712,23.233Zm0,0" fill="#fff"/>
</svg>
