<svg xmlns="http://www.w3.org/2000/svg" width="158.279" height="158.279" viewBox="0 0 158.279 158.279"><defs><style>.a{fill:none;}.b,.d{fill:#fff;}.c,.d{stroke:none;}</style></defs><g class="a"><path class="c" d="M79.139,0A79.139,79.139,0,1,1,0,79.139,79.139,79.139,0,0,1,79.139,0Z"/><path class="d" d="M 79.13944244384766 8 C 39.91302490234375 8 8 39.91302490234375 8 79.13944244384766 C 8 118.3658599853516 39.91302490234375 150.2788848876953 79.13944244384766 150.2788848876953 C 118.3658599853516 150.2788848876953 150.2788848876953 118.3658599853516 150.2788848876953 79.13944244384766 C 150.2788848876953 39.91302490234375 118.3658599853516 8 79.13944244384766 8 M 79.13944244384766 0 C 122.8469390869141 0 158.2788848876953 35.43194580078125 158.2788848876953 79.13944244384766 C 158.2788848876953 122.8469390869141 122.8469390869141 158.2788848876953 79.13944244384766 158.2788848876953 C 35.43194580078125 158.2788848876953 0 122.8469390869141 0 79.13944244384766 C 0 35.43194580078125 35.43194580078125 0 79.13944244384766 0 Z"/></g><g transform="translate(43.509 37.418)"><g transform="translate(0)"><path class="b" d="M106.419,8a6,6,0,0,0-4.581-2.118h-5.8V4.07A4.075,4.075,0,0,0,91.97,0H52.655a4.074,4.074,0,0,0-4.07,4.07V5.883h-5.8A6,6,0,0,0,38.205,8a5.931,5.931,0,0,0-1.343,4.8A31.072,31.072,0,0,0,52.647,34.985a40.974,40.974,0,0,0,2.594,5.2c3.08,5.182,6.908,8.763,11.122,10.5a8.771,8.771,0,0,1-6.773,9.384l-.025.007a1.92,1.92,0,0,0-1.473,1.866v8.81H54.529a5.768,5.768,0,0,0-5.761,5.761v4.547a1.92,1.92,0,0,0,1.92,1.92H94.12a1.92,1.92,0,0,0,1.92-1.92V76.51a5.768,5.768,0,0,0-5.761-5.761H86.715v-8.81a1.919,1.919,0,0,0-1.478-1.867l-.023-.006A8.764,8.764,0,0,1,78.448,50.6c4.14-1.76,7.9-5.309,10.936-10.415a40.993,40.993,0,0,0,2.594-5.2A31.073,31.073,0,0,0,107.762,12.8,5.931,5.931,0,0,0,106.419,8ZM40.653,12.186a2.07,2.07,0,0,1,.478-1.7,2.17,2.17,0,0,1,1.655-.766h5.8v3.533a60.345,60.345,0,0,0,2.047,15.815A27.2,27.2,0,0,1,40.653,12.186Zm49.626,62.4a1.923,1.923,0,0,1,1.92,1.92v2.627H52.609V76.51a1.923,1.923,0,0,1,1.92-1.92Zm-7.4-10.731v6.89H61.934v-6.89Zm-15.9-3.841a12.714,12.714,0,0,0,1.3-1.7,12.493,12.493,0,0,0,1.982-6.592,15.057,15.057,0,0,0,4.31-.025,12.642,12.642,0,0,0,3.3,8.312H66.97ZM92.2,13.257c0,9.461-2.173,18.328-6.117,24.966-3.759,6.325-8.648,9.809-13.768,9.809S62.3,44.549,58.543,38.224c-3.945-6.638-6.118-15.5-6.118-24.966V4.07a.229.229,0,0,1,.229-.229H91.97a.229.229,0,0,1,.229.229Zm11.772-1.071a27.2,27.2,0,0,1-9.978,16.886A60.349,60.349,0,0,0,96.04,13.257V9.724h5.8a2.17,2.17,0,0,1,1.655.766A2.07,2.07,0,0,1,103.971,12.186Z" transform="translate(-36.785)"/></g><g transform="translate(23.774 11.246)"><path class="b" d="M206.891,77.862a1.922,1.922,0,0,0-1.55-1.307l-5.8-.842-2.592-5.251a1.92,1.92,0,0,0-3.444,0l-2.592,5.251-5.8.842a1.92,1.92,0,0,0-1.064,3.276l4.193,4.087-.99,5.772a1.92,1.92,0,0,0,2.786,2.025l5.183-2.725,5.183,2.725A1.92,1.92,0,0,0,203.2,89.69l-.99-5.772,4.193-4.087A1.92,1.92,0,0,0,206.891,77.862Zm-8.083,4.011a1.92,1.92,0,0,0-.552,1.7l.5,2.932-2.633-1.384a1.922,1.922,0,0,0-1.787,0L191.706,86.5l.5-2.932a1.92,1.92,0,0,0-.552-1.7l-2.13-2.076,2.943-.428a1.92,1.92,0,0,0,1.446-1.051l1.316-2.667,1.316,2.667a1.921,1.921,0,0,0,1.446,1.051l2.943.428Z" transform="translate(-183.479 -69.391)"/></g></g></svg>