<svg xmlns="http://www.w3.org/2000/svg" width="158.279" height="158.279" viewBox="0 0 158.279 158.279"><defs><style>.a{fill:none;}.b,.d{fill:#fff;}.c,.d{stroke:none;}</style></defs><g class="a" transform="translate(0)"><path class="c" d="M79.139,0A79.139,79.139,0,1,1,0,79.139,79.139,79.139,0,0,1,79.139,0Z"/><path class="d" d="M 79.13944244384766 8 C 39.91302490234375 8 8 39.91302490234375 8 79.13944244384766 C 8 118.3658599853516 39.91302490234375 150.2788848876953 79.13944244384766 150.2788848876953 C 118.3658599853516 150.2788848876953 150.2788848876953 118.3658599853516 150.2788848876953 79.13944244384766 C 150.2788848876953 39.91302490234375 118.3658599853516 8 79.13944244384766 8 M 79.13944244384766 0 C 122.8469390869141 0 158.2788848876953 35.43194580078125 158.2788848876953 79.13944244384766 C 158.2788848876953 122.8469390869141 122.8469390869141 158.2788848876953 79.13944244384766 158.2788848876953 C 35.43194580078125 158.2788848876953 0 122.8469390869141 0 79.13944244384766 C 0 35.43194580078125 35.43194580078125 0 79.13944244384766 0 Z"/></g><g transform="translate(47.784 34.091)"><path class="b" d="M44.124,218.4a5.158,5.158,0,0,0,10.017,2.468l5.684-23.07-10.038-2.379Z" transform="translate(-43.973 -134.333)"/><path class="b" d="M210.428,218.481l-5.653-22.947-10.038,2.379,5.675,23.036a5.158,5.158,0,0,0,10.017-2.468Z" transform="translate(-147.607 -134.409)"/><path class="b" d="M96.85,58.806l10.036-2.473a5.148,5.148,0,0,0,3.767-6.23l0-.02a5.148,5.148,0,0,0-6.23-3.767l-2.976.733a2.494,2.494,0,0,0-.052-.409c-.646-2.973-1.033-6.126-1.406-9.175a69.891,69.891,0,0,0-2.024-11.391,17.172,17.172,0,0,0,3.021-11.3C100.351,7.959,95.1,0,82.379,0A18.968,18.968,0,0,0,68.354,5.688c-4.487,4.651-6.895,11.953-6.605,20.036a71.8,71.8,0,0,0,.957,8.519c.647,4.2,1.259,8.172.493,12.179a2.532,2.532,0,0,0-.044.512l-2.5-.616a5.148,5.148,0,0,0-6.23,3.767l-.005.02a5.193,5.193,0,0,0,3.767,6.23l10.036,2.473a5.172,5.172,0,0,0,6.23-3.767l.005-.02a5.148,5.148,0,0,0-3.767-6.23l-2.841-.7a2.487,2.487,0,0,0,.262-.729c.929-4.855.222-9.443-.462-13.88a67.907,67.907,0,0,1-.9-7.936c-.241-6.733,1.657-12.7,5.206-16.384A13.9,13.9,0,0,1,82.379,5C88.507,5,95.3,7.69,96,15.236a11.745,11.745,0,0,1-.669,5.092A13.7,13.7,0,0,0,88.2,14.962a10.627,10.627,0,0,0-8.617.592,9.756,9.756,0,0,0-4.792,6.2A9.32,9.32,0,0,0,76.93,29.93,10.648,10.648,0,0,0,86.015,33.6a14.991,14.991,0,0,0,7.854-3.177c.455,2.238.8,4.792,1.152,7.654.387,3.161.788,6.431,1.483,9.629a2.5,2.5,0,0,0,.177.52l-2.3.566a5.148,5.148,0,0,0-3.767,6.23l.005.02a5.164,5.164,0,0,0,6.23,3.767Zm-11.229-30.2a5.592,5.592,0,0,1-4.878-1.918,4.391,4.391,0,0,1-1.094-3.743,4.743,4.743,0,0,1,2.335-3.008,5.126,5.126,0,0,1,2.479-.619,6.58,6.58,0,0,1,2.127.374,9.306,9.306,0,0,1,5.7,5.445A10.922,10.922,0,0,1,85.621,28.611Z" transform="translate(-51.049)"/></g></svg>