<svg xmlns="http://www.w3.org/2000/svg" width="158.279" height="158.279" viewBox="0 0 158.279 158.279"><defs><style>.a{fill:none;}.b,.d{fill:#fff;}.c,.d{stroke:none;}</style></defs><g class="a" transform="translate(0)"><path class="c" d="M79.139,0A79.139,79.139,0,1,1,0,79.139,79.139,79.139,0,0,1,79.139,0Z"/><path class="d" d="M 79.13944244384766 8 C 39.91302490234375 8 8 39.91302490234375 8 79.13944244384766 C 8 118.3658599853516 39.91302490234375 150.2788848876953 79.13944244384766 150.2788848876953 C 118.3658599853516 150.2788848876953 150.2788848876953 118.3658599853516 150.2788848876953 79.13944244384766 C 150.2788848876953 39.91302490234375 118.3658599853516 8 79.13944244384766 8 M 79.13944244384766 0 C 122.8469390869141 0 158.2788848876953 35.43194580078125 158.2788848876953 79.13944244384766 C 158.2788848876953 122.8469390869141 122.8469390869141 158.2788848876953 79.13944244384766 158.2788848876953 C 35.43194580078125 158.2788848876953 0 122.8469390869141 0 79.13944244384766 C 0 35.43194580078125 35.43194580078125 0 79.13944244384766 0 Z"/></g><g transform="translate(39.401 39.083)"><path class="b" d="M18.144,48.345A4.144,4.144,0,0,0,22.288,44.2V1.381A1.381,1.381,0,0,0,20.906,0H15.381A1.381,1.381,0,0,0,14,1.381V44.2A4.144,4.144,0,0,0,18.144,48.345Z" transform="translate(3.964)"/><path class="b" d="M23.1,69.9a22.1,22.1,0,0,0,6.906-43.1v7.183a2.041,2.041,0,0,1-.014.29,15.194,15.194,0,1,1-13.785,0,2.04,2.04,0,0,1-.014-.29V26.8A22.1,22.1,0,0,0,23.1,69.9Z" transform="translate(-0.995 10.218)"/><path class="b" d="M51.572,52.887A16.575,16.575,0,0,0,57.1,20.69v6.064a11.05,11.05,0,1,1-11.05,0V20.69a16.575,16.575,0,0,0,5.525,32.2Z" transform="translate(11.974 7.889)"/><path class="b" d="M47.763,38.676a2.771,2.771,0,0,0,2.763-2.763V1.381A1.381,1.381,0,0,0,49.144,0H46.381A1.381,1.381,0,0,0,45,1.381V35.913A2.771,2.771,0,0,0,47.763,38.676Z" transform="translate(15.784)"/></g></svg>