<svg xmlns="http://www.w3.org/2000/svg" width="158.279" height="158.279" viewBox="0 0 158.279 158.279"><defs><style>.a{fill:none;}.b,.d{fill:#fff;}.c,.d{stroke:none;}</style></defs><g class="a" transform="translate(0)"><path class="c" d="M79.139,0A79.139,79.139,0,1,1,0,79.139,79.139,79.139,0,0,1,79.139,0Z"/><path class="d" d="M 79.13944244384766 8 C 39.91302490234375 8 8 39.91302490234375 8 79.13944244384766 C 8 118.3658599853516 39.91302490234375 150.2788848876953 79.13944244384766 150.2788848876953 C 118.3658599853516 150.2788848876953 150.2788848876953 118.3658599853516 150.2788848876953 79.13944244384766 C 150.2788848876953 39.91302490234375 118.3658599853516 8 79.13944244384766 8 M 79.13944244384766 0 C 122.8469390869141 0 158.2788848876953 35.43194580078125 158.2788848876953 79.13944244384766 C 158.2788848876953 122.8469390869141 122.8469390869141 158.2788848876953 79.13944244384766 158.2788848876953 C 35.43194580078125 158.2788848876953 0 122.8469390869141 0 79.13944244384766 C 0 35.43194580078125 35.43194580078125 0 79.13944244384766 0 Z"/></g><g transform="translate(42.005 35.917)"><path class="b" d="M136.6,230.271a2.588,2.588,0,0,0-3.656.167l-5.492,6.018v-4.273a2.588,2.588,0,1,0-5.176,0V243.13h0v10.947a2.588,2.588,0,0,0,5.176,0V249.8l5.492,6.017a2.588,2.588,0,1,0,3.823-3.489l-8.4-9.2,8.4-9.2a2.588,2.588,0,0,0-.167-3.656Zm0,0" transform="translate(-101.633 -190.831)"/><path class="b" d="M236.045,234.77a2.411,2.411,0,0,1,2.408,2.408,2.588,2.588,0,0,0,5.176,0,7.584,7.584,0,0,0-15.169,0v11.9a7.584,7.584,0,0,0,15.169,0V245.15a2.588,2.588,0,0,0-2.588-2.589H238.2a2.588,2.588,0,0,0,0,5.176h.252v1.343a2.408,2.408,0,0,1-4.816,0v-11.9A2.411,2.411,0,0,1,236.045,234.77Zm0,0" transform="translate(-189.889 -190.831)"/><path class="b" d="M143.427,75.86h14.428a6.941,6.941,0,0,0,6.934-6.934v-.675a6.942,6.942,0,0,0-6.934-6.935H143.427a6.942,6.942,0,0,0-6.934,6.934v.675A6.941,6.941,0,0,0,143.427,75.86Zm-1.758-7.609a1.76,1.76,0,0,1,1.758-1.758h14.428a1.759,1.759,0,0,1,1.758,1.758v.675a1.759,1.759,0,0,1-1.758,1.758H143.427a1.76,1.76,0,0,1-1.758-1.758Zm0,0" transform="translate(-113.448 -50.964)"/><path class="b" d="M59.816,25.785a17.129,17.129,0,0,0,1.876-7.824v-.675A17.306,17.306,0,0,0,44.406,0H29.978A17.306,17.306,0,0,0,12.691,17.286v.675a17.139,17.139,0,0,0,1.891,7.854,37.19,37.19,0,0,0-3.648,55.868,16.252,16.252,0,0,0,11.554,4.758H51.9a16.221,16.221,0,0,0,11.521-4.727,37.235,37.235,0,0,0-3.6-55.93Zm-.049,52.26a11.229,11.229,0,0,1-7.871,3.22H22.488a11.262,11.262,0,0,1-7.9-3.247,32.015,32.015,0,0,1,4.886-49.341,2.587,2.587,0,0,0,.667-3.665,12.007,12.007,0,0,1-2.275-7.05v-.675a12.124,12.124,0,0,1,12.11-12.11H44.405a12.123,12.123,0,0,1,12.11,12.11v.675a12,12,0,0,1-2.261,7.03,2.588,2.588,0,0,0,.673,3.663,32.054,32.054,0,0,1,4.839,49.391Zm0,0" transform="translate(0.001 0)"/></g></svg>